# xmcd CD database file
#
# Track frame offsets:
#	150
#	17977
#	38777
#	56597
#
# Disc length: 1030 seconds
#
# Revision: 0
# Processed by: cddbd v1.5PL3 Copyright (c) Steve Scherf et al.
# Submitted via: CDex 1.51
#
DISCID=2d040404
DTITLE=相川七瀬 - 「仮面ライダー剣(ブレイド)」オープニング・テーマ Round Zero 〜Blade Brave
DYEAR=2004
DGENRE=JPop
TTITLE0=Round ZERO 〜BLADE BRAVE
TTITLE1=覚醒
TTITLE2=Round ZERO 〜BLADE BRAVE (オリジナル・カラオケ)
TTITLE3=覚醒 (オリジナル・カラオケ)
EXTD=YEAR: 2004
EXTT0=
EXTT1=
EXTT2=
EXTT3=
PLAYORDER=
